<?xml version="1.0" encoding="UTF-8"?>
<svg xmlns="http://www.w3.org/2000/svg" xmlns:xlink="http://www.w3.org/1999/xlink" version="1.1" viewBox="0 0 300.1 463.2">
  <!-- Generator: Adobe Illustrator 30.6.0, SVG Export Plug-In . SVG Version: 2.1.4 Build 109)  -->
  <defs>
    <style>
      .st0 {
        fill: #f9f9fb;
      }

      .st1 {
        fill: url(#_名称未設定グラデーション_1667);
      }

      .st2 {
        fill: url(#_名称未設定グラデーション_1574);
      }

      .st3 {
        fill: url(#_名称未設定グラデーション_1298);
      }

      .st4 {
        fill: url(#_名称未設定グラデーション_1491);
      }

      .st5 {
        fill: url(#_名称未設定グラデーション_1431);
      }

      .st6 {
        fill: url(#_名称未設定グラデーション_1125);
      }

      .st7 {
        fill: url(#_名称未設定グラデーション_1021);
      }

      .st8 {
        fill: url(#_名称未設定グラデーション_8481);
      }

      .st9 {
        fill: url(#_名称未設定グラデーション_8482);
      }

      .st10 {
        fill: url(#_名称未設定グラデーション_8483);
      }

      .st11 {
        fill: url(#_名称未設定グラデーション_8484);
      }

      .st12 {
        fill: url(#_名称未設定グラデーション_166714);
      }

      .st13 {
        fill: url(#_名称未設定グラデーション_166716);
      }

      .st14 {
        fill: url(#_名称未設定グラデーション_166713);
      }

      .st15 {
        fill: url(#_名称未設定グラデーション_166715);
      }

      .st16 {
        fill: url(#_名称未設定グラデーション_166720);
      }

      .st17 {
        fill: url(#_名称未設定グラデーション_166719);
      }

      .st18 {
        fill: url(#_名称未設定グラデーション_166718);
      }

      .st19 {
        fill: url(#_名称未設定グラデーション_166717);
      }

      .st20 {
        fill: url(#_名称未設定グラデーション_166710);
      }

      .st21 {
        fill: url(#_名称未設定グラデーション_166711);
      }

      .st22 {
        fill: url(#_名称未設定グラデーション_166712);
      }

      .st23 {
        fill: url(#_名称未設定グラデーション_149120);
      }

      .st24 {
        fill: url(#_名称未設定グラデーション_149110);
      }

      .st25 {
        fill: url(#_名称未設定グラデーション_149111);
      }

      .st26 {
        fill: url(#_名称未設定グラデーション_149117);
      }

      .st27 {
        fill: url(#_名称未設定グラデーション_149118);
      }

      .st28 {
        fill: url(#_名称未設定グラデーション_149119);
      }

      .st29 {
        fill: url(#_名称未設定グラデーション_149112);
      }

      .st30 {
        fill: url(#_名称未設定グラデーション_149113);
      }

      .st31 {
        fill: url(#_名称未設定グラデーション_149114);
      }

      .st32 {
        fill: url(#_名称未設定グラデーション_149115);
      }

      .st33 {
        fill: url(#_名称未設定グラデーション_149116);
      }

      .st34 {
        fill: url(#_名称未設定グラデーション_14313);
      }

      .st35 {
        fill: url(#_名称未設定グラデーション_14312);
      }

      .st36 {
        fill: url(#_名称未設定グラデーション_14311);
      }

      .st37 {
        fill: url(#_名称未設定グラデーション_10211);
      }

      .st38 {
        fill: url(#_名称未設定グラデーション_14913);
      }

      .st39 {
        fill: url(#_名称未設定グラデーション_14914);
      }

      .st40 {
        fill: url(#_名称未設定グラデーション_14912);
      }

      .st41 {
        fill: url(#_名称未設定グラデーション_14911);
      }

      .st42 {
        fill: url(#_名称未設定グラデーション_14915);
      }

      .st43 {
        fill: url(#_名称未設定グラデーション_14917);
      }

      .st44 {
        fill: url(#_名称未設定グラデーション_14918);
      }

      .st45 {
        fill: url(#_名称未設定グラデーション_14919);
      }

      .st46 {
        fill: url(#_名称未設定グラデーション_14916);
      }

      .st47 {
        fill: url(#_名称未設定グラデーション_12983);
      }

      .st48 {
        fill: url(#_名称未設定グラデーション_12984);
      }

      .st49 {
        fill: url(#_名称未設定グラデーション_12985);
      }

      .st50 {
        fill: url(#_名称未設定グラデーション_12981);
      }

      .st51 {
        fill: url(#_名称未設定グラデーション_12982);
      }

      .st52 {
        fill: url(#_名称未設定グラデーション_16679);
      }

      .st53 {
        fill: url(#_名称未設定グラデーション_16678);
      }

      .st54 {
        fill: url(#_名称未設定グラデーション_16675);
      }

      .st55 {
        fill: url(#_名称未設定グラデーション_16677);
      }

      .st56 {
        fill: url(#_名称未設定グラデーション_16674);
      }

      .st57 {
        fill: url(#_名称未設定グラデーション_16676);
      }

      .st58 {
        fill: url(#_名称未設定グラデーション_16671);
      }

      .st59 {
        fill: url(#_名称未設定グラデーション_16672);
      }

      .st60 {
        fill: url(#_名称未設定グラデーション_16673);
      }

      .st61 {
        fill: url(#_名称未設定グラデーション_11251);
      }

      .st62 {
        fill: #c4b550;
      }

      .st63 {
        fill: url(#_名称未設定グラデーション_848);
      }

      .st64 {
        fill: url(#_名称未設定グラデーション_886);
      }

      .st65 {
        fill: url(#_名称未設定グラデーション_865);
      }

      .st66 {
        fill: url(#_名称未設定グラデーション_328);
      }

      .st67 {
        fill: url(#_名称未設定グラデーション_901);
      }

      .st68 {
        fill: url(#_名称未設定グラデーション_939);
      }

      .st69 {
        fill: url(#_名称未設定グラデーション_924);
      }

      .st70 {
        fill: url(#_名称未設定グラデーション_975);
      }

      .st71 {
        fill: #8c6239;
      }

      .st72 {
        fill: #419567;
      }
    </style>
    <linearGradient id="_名称未設定グラデーション_865" data-name="名称未設定グラデーション 865" x1="80.3" y1="193.5" x2="117.6" y2="227.4" gradientUnits="userSpaceOnUse">
      <stop offset="0" stop-color="#9abfe1"/>
      <stop offset="1" stop-color="#c5d8f0"/>
    </linearGradient>
    <linearGradient id="_名称未設定グラデーション_328" data-name="名称未設定グラデーション 328" x1="165.7" y1="129.7" x2="166.2" y2="217.2" gradientUnits="userSpaceOnUse">
      <stop offset="0" stop-color="#75a7da"/>
      <stop offset="1" stop-color="#9fc4e7"/>
    </linearGradient>
    <linearGradient id="_名称未設定グラデーション_886" data-name="名称未設定グラデーション 886" x1="61.9" y1="263.3" x2="84.1" y2="312.3" gradientUnits="userSpaceOnUse">
      <stop offset="0" stop-color="#85b6be"/>
      <stop offset="1" stop-color="#a5c6bf"/>
    </linearGradient>
    <linearGradient id="_名称未設定グラデーション_901" data-name="名称未設定グラデーション 901" x1="165.2" y1="252.3" x2="181.6" y2="340.9" gradientUnits="userSpaceOnUse">
      <stop offset="0" stop-color="#669cab"/>
      <stop offset="1" stop-color="#92bac4"/>
    </linearGradient>
    <linearGradient id="_名称未設定グラデーション_924" data-name="名称未設定グラデーション 924" x1="83.9" y1="312.1" x2="101.4" y2="354.6" gradientUnits="userSpaceOnUse">
      <stop offset="0" stop-color="#71ac8c"/>
      <stop offset="1" stop-color="#93b689"/>
    </linearGradient>
    <linearGradient id="_名称未設定グラデーション_939" data-name="名称未設定グラデーション 939" x1="0" y1="330.1" x2="74.3" y2="330.1" gradientUnits="userSpaceOnUse">
      <stop offset="0" stop-color="#86b68a"/>
      <stop offset="1" stop-color="#abc180"/>
    </linearGradient>
    <linearGradient id="_名称未設定グラデーション_1021" data-name="名称未設定グラデーション 1021" x1="174.9" y1="42.2" x2="123.7" y2="156.8" gradientUnits="userSpaceOnUse">
      <stop offset="0" stop-color="#f9f9fb"/>
      <stop offset="1" stop-color="#e6f2fa"/>
    </linearGradient>
    <linearGradient id="_名称未設定グラデーション_1125" data-name="名称未設定グラデーション 1125" x1="192.2" y1="50.4" x2="211.8" y2="181.1" gradientUnits="userSpaceOnUse">
      <stop offset="0" stop-color="#c9e2f8"/>
      <stop offset="1" stop-color="#9cc4e4"/>
    </linearGradient>
    <linearGradient id="_名称未設定グラデーション_975" data-name="名称未設定グラデーション 975" x1="196.9" y1="189.9" x2="202.8" y2="228.9" gradientUnits="userSpaceOnUse">
      <stop offset="0" stop-color="#c9e2f8"/>
      <stop offset="1" stop-color="#dce4ef"/>
    </linearGradient>
    <linearGradient id="_名称未設定グラデーション_10211" data-name="名称未設定グラデーション 1021" x1="202.8" y1="32.4" x2="174.3" y2="102" xlink:href="#_名称未設定グラデーション_1021"/>
    <linearGradient id="_名称未設定グラデーション_11251" data-name="名称未設定グラデーション 1125" x1="227.9" y1="38.1" x2="251" y2="95.8" xlink:href="#_名称未設定グラデーション_1125"/>
    <linearGradient id="_名称未設定グラデーション_848" data-name="名称未設定グラデーション 848" x1="159.3" y1="431" x2="140.1" y2="349.3" gradientUnits="userSpaceOnUse">
      <stop offset="0" stop-color="#59a65c"/>
      <stop offset="1" stop-color="#82ac5a"/>
    </linearGradient>
    <linearGradient id="_名称未設定グラデーション_8481" data-name="名称未設定グラデーション 848" x1="141.9" y1="471.6" x2="154.1" y2="427.9" xlink:href="#_名称未設定グラデーション_848"/>
    <linearGradient id="_名称未設定グラデーション_8482" data-name="名称未設定グラデーション 848" x1="63.3" y1="508.2" x2="76.7" y2="459.8" xlink:href="#_名称未設定グラデーション_848"/>
    <linearGradient id="_名称未設定グラデーション_1298" data-name="名称未設定グラデーション 1298" x1="248.7" y1="305.7" x2="281.6" y2="305.7" gradientUnits="userSpaceOnUse">
      <stop offset="0" stop-color="#419567"/>
      <stop offset="1" stop-color="#2a6545"/>
    </linearGradient>
    <linearGradient id="_名称未設定グラデーション_1431" data-name="名称未設定グラデーション 1431" x1="250.5" y1="299.2" x2="277.9" y2="299.2" gradientUnits="userSpaceOnUse">
      <stop offset="0" stop-color="#2d6e4b"/>
      <stop offset="1" stop-color="#225539"/>
    </linearGradient>
    <linearGradient id="_名称未設定グラデーション_12981" data-name="名称未設定グラデーション 1298" x1="250.2" y1="289.6" x2="280.2" y2="289.6" xlink:href="#_名称未設定グラデーション_1298"/>
    <linearGradient id="_名称未設定グラデーション_14311" data-name="名称未設定グラデーション 1431" x1="253.7" y1="283.5" x2="276.5" y2="283.5" xlink:href="#_名称未設定グラデーション_1431"/>
    <linearGradient id="_名称未設定グラデーション_12982" data-name="名称未設定グラデーション 1298" x1="253.7" y1="277.3" x2="276.5" y2="277.3" xlink:href="#_名称未設定グラデーション_1298"/>
    <linearGradient id="_名称未設定グラデーション_12983" data-name="名称未設定グラデーション 1298" x1="193.6" y1="304.6" x2="240.5" y2="304.6" xlink:href="#_名称未設定グラデーション_1298"/>
    <linearGradient id="_名称未設定グラデーション_14312" data-name="名称未設定グラデーション 1431" x1="196.2" y1="295.3" x2="235.2" y2="295.3" xlink:href="#_名称未設定グラデーション_1431"/>
    <linearGradient id="_名称未設定グラデーション_12984" data-name="名称未設定グラデーション 1298" x1="195.8" y1="281.6" x2="238.5" y2="281.6" xlink:href="#_名称未設定グラデーション_1298"/>
    <linearGradient id="_名称未設定グラデーション_14313" data-name="名称未設定グラデーション 1431" x1="200.8" y1="273" x2="233.3" y2="273" xlink:href="#_名称未設定グラデーション_1431"/>
    <linearGradient id="_名称未設定グラデーション_12985" data-name="名称未設定グラデーション 1298" x1="200.8" y1="264.2" x2="233.3" y2="264.2" xlink:href="#_名称未設定グラデーション_1298"/>
    <linearGradient id="_名称未設定グラデーション_8483" data-name="名称未設定グラデーション 848" x1="178.7" y1="327.1" x2="175.8" y2="291.7" xlink:href="#_名称未設定グラデーション_848"/>
    <linearGradient id="_名称未設定グラデーション_8484" data-name="名称未設定グラデーション 848" x1="181" y1="336.6" x2="178.6" y2="317.4" xlink:href="#_名称未設定グラデーション_848"/>
    <radialGradient id="_名称未設定グラデーション_1491" data-name="名称未設定グラデーション 1491" cx="217.9" cy="272.3" fx="217.9" fy="272.3" r="1.9" gradientUnits="userSpaceOnUse">
      <stop offset="0" stop-color="#fff"/>
      <stop offset="1" stop-color="#fff68a"/>
    </radialGradient>
    <radialGradient id="_名称未設定グラデーション_14911" data-name="名称未設定グラデーション 1491" cx="227.6" cy="268.2" fx="227.6" fy="268.2" xlink:href="#_名称未設定グラデーション_1491"/>
    <radialGradient id="_名称未設定グラデーション_14912" data-name="名称未設定グラデーション 1491" cx="219" cy="261.7" fx="219" fy="261.7" xlink:href="#_名称未設定グラデーション_1491"/>
    <radialGradient id="_名称未設定グラデーション_14913" data-name="名称未設定グラデーション 1491" cx="216" cy="255.3" fx="216" fy="255.3" xlink:href="#_名称未設定グラデーション_1491"/>
    <radialGradient id="_名称未設定グラデーション_14914" data-name="名称未設定グラデーション 1491" cx="213.8" cy="282.9" fx="213.8" fy="282.9" xlink:href="#_名称未設定グラデーション_1491"/>
    <radialGradient id="_名称未設定グラデーション_14915" data-name="名称未設定グラデーション 1491" cx="230" cy="274.8" fx="230" fy="274.8" xlink:href="#_名称未設定グラデーション_1491"/>
    <radialGradient id="_名称未設定グラデーション_14916" data-name="名称未設定グラデーション 1491" cx="231.1" cy="291.4" fx="231.1" fy="291.4" r="1.9" gradientTransform="translate(453 -9.2) rotate(75.8)" xlink:href="#_名称未設定グラデーション_1491"/>
    <radialGradient id="_名称未設定グラデーション_14917" data-name="名称未設定グラデーション 1491" cx="243.1" cy="292.7" fx="243.1" fy="292.7" r="1.9" gradientTransform="translate(453 -9.2) rotate(75.8)" xlink:href="#_名称未設定グラデーション_1491"/>
    <radialGradient id="_名称未設定グラデーション_14918" data-name="名称未設定グラデーション 1491" cx="238.8" cy="284.2" fx="238.8" fy="284.2" r="1.9" gradientTransform="translate(453 -9.2) rotate(75.8)" xlink:href="#_名称未設定グラデーション_1491"/>
    <radialGradient id="_名称未設定グラデーション_14919" data-name="名称未設定グラデーション 1491" cx="251.2" cy="298.4" fx="251.2" fy="298.4" r="1.9" gradientTransform="translate(453 -9.2) rotate(75.8)" xlink:href="#_名称未設定グラデーション_1491"/>
    <radialGradient id="_名称未設定グラデーション_149110" data-name="名称未設定グラデーション 1491" cx="263.4" cy="296.5" fx="263.4" fy="296.5" r="1.9" gradientTransform="translate(453 -9.2) rotate(75.8)" xlink:href="#_名称未設定グラデーション_1491"/>
    <radialGradient id="_名称未設定グラデーション_149111" data-name="名称未設定グラデーション 1491" cx="263.3" cy="307.6" fx="263.3" fy="307.6" gradientTransform="translate(453 -9.2) rotate(75.8)" xlink:href="#_名称未設定グラデーション_1491"/>
    <radialGradient id="_名称未設定グラデーション_149112" data-name="名称未設定グラデーション 1491" cx="259" cy="308.7" fx="259" fy="308.7" gradientTransform="translate(110.8 706.8) rotate(-126.2)" xlink:href="#_名称未設定グラデーション_1491"/>
    <radialGradient id="_名称未設定グラデーション_149113" data-name="名称未設定グラデーション 1491" cx="261.5" cy="298.4" fx="261.5" fy="298.4" r="1.9" gradientTransform="translate(110.8 706.8) rotate(-126.2)" xlink:href="#_名称未設定グラデーション_1491"/>
    <radialGradient id="_名称未設定グラデーション_149114" data-name="名称未設定グラデーション 1491" cx="249" cy="305.9" fx="249" fy="305.9" gradientTransform="translate(453 -9.2) rotate(75.8)" xlink:href="#_名称未設定グラデーション_1491"/>
    <radialGradient id="_名称未設定グラデーション_149115" data-name="名称未設定グラデーション 1491" cx="237.1" cy="304.9" fx="237.1" fy="304.9" r="1.9" gradientTransform="translate(453 -9.2) rotate(75.8)" xlink:href="#_名称未設定グラデーション_1491"/>
    <radialGradient id="_名称未設定グラデーション_149116" data-name="名称未設定グラデーション 1491" cx="244.7" cy="314.7" fx="244.7" fy="314.7" r="1.9" gradientTransform="translate(453 -9.2) rotate(75.8)" xlink:href="#_名称未設定グラデーション_1491"/>
    <radialGradient id="_名称未設定グラデーション_149117" data-name="名称未設定グラデーション 1491" cx="232.4" cy="317.1" fx="232.4" fy="317.1" r="1.9" gradientTransform="translate(453 -9.2) rotate(75.8)" xlink:href="#_名称未設定グラデーション_1491"/>
    <radialGradient id="_名称未設定グラデーション_149118" data-name="名称未設定グラデーション 1491" cx="228.8" cy="313" fx="228.8" fy="313" r="1.9" gradientTransform="translate(453 -9.2) rotate(75.8)" xlink:href="#_名称未設定グラデーション_1491"/>
    <radialGradient id="_名称未設定グラデーション_149119" data-name="名称未設定グラデーション 1491" cx="211.6" cy="269.9" fx="211.6" fy="269.9" r="1.9" xlink:href="#_名称未設定グラデーション_1491"/>
    <radialGradient id="_名称未設定グラデーション_149120" data-name="名称未設定グラデーション 1491" cx="207.9" cy="264.2" fx="207.9" fy="264.2" r="1.9" xlink:href="#_名称未設定グラデーション_1491"/>
    <radialGradient id="_名称未設定グラデーション_1667" data-name="名称未設定グラデーション 1667" cx="224.4" cy="273" fx="224.4" fy="273" r="1.9" gradientUnits="userSpaceOnUse">
      <stop offset="0" stop-color="#fbe0ec"/>
      <stop offset="1" stop-color="#ea8a39"/>
    </radialGradient>
    <radialGradient id="_名称未設定グラデーション_16671" data-name="名称未設定グラデーション 1667" cx="221.8" cy="265.4" fx="221.8" fy="265.4" r="1.9" xlink:href="#_名称未設定グラデーション_1667"/>
    <radialGradient id="_名称未設定グラデーション_16672" data-name="名称未設定グラデーション 1667" cx="231.5" cy="288.5" fx="231.5" fy="288.5" xlink:href="#_名称未設定グラデーション_1667"/>
    <radialGradient id="_名称未設定グラデーション_16673" data-name="名称未設定グラデーション 1667" cx="237.1" cy="297.7" fx="237.1" fy="297.7" r="1.9" xlink:href="#_名称未設定グラデーション_1667"/>
    <radialGradient id="_名称未設定グラデーション_16674" data-name="名称未設定グラデーション 1667" cx="231.8" cy="310.2" fx="231.8" fy="310.2" xlink:href="#_名称未設定グラデーション_1667"/>
    <radialGradient id="_名称未設定グラデーション_16675" data-name="名称未設定グラデーション 1667" cx="201.4" cy="307.4" fx="201.4" fy="307.4" xlink:href="#_名称未設定グラデーション_1667"/>
    <radialGradient id="_名称未設定グラデーション_16676" data-name="名称未設定グラデーション 1667" cx="221.4" cy="305.7" fx="221.4" fy="305.7" r="1.9" xlink:href="#_名称未設定グラデーション_1667"/>
    <radialGradient id="_名称未設定グラデーション_16677" data-name="名称未設定グラデーション 1667" cx="225.2" cy="318" fx="225.2" fy="318" r="1.9" xlink:href="#_名称未設定グラデーション_1667"/>
    <radialGradient id="_名称未設定グラデーション_16678" data-name="名称未設定グラデーション 1667" cx="213.5" cy="317.9" fx="213.5" fy="317.9" r="1.9" xlink:href="#_名称未設定グラデーション_1667"/>
    <radialGradient id="_名称未設定グラデーション_16679" data-name="名称未設定グラデーション 1667" cx="219.6" cy="314.1" fx="219.6" fy="314.1" r="1.9" xlink:href="#_名称未設定グラデーション_1667"/>
    <radialGradient id="_名称未設定グラデーション_166710" data-name="名称未設定グラデーション 1667" cx="201.8" cy="315.9" fx="201.8" fy="315.9" r="1.9" xlink:href="#_名称未設定グラデーション_1667"/>
    <radialGradient id="_名称未設定グラデーション_166711" data-name="名称未設定グラデーション 1667" cx="235.4" cy="319.3" fx="235.4" fy="319.3" r="1.9" xlink:href="#_名称未設定グラデーション_1667"/>
    <radialGradient id="_名称未設定グラデーション_166712" data-name="名称未設定グラデーション 1667" cx="212.3" cy="307.4" fx="212.3" fy="307.4" xlink:href="#_名称未設定グラデーション_1667"/>
    <radialGradient id="_名称未設定グラデーション_166713" data-name="名称未設定グラデーション 1667" cx="222.5" cy="284.8" fx="222.5" fy="284.8" r="1.9" xlink:href="#_名称未設定グラデーション_1667"/>
    <radialGradient id="_名称未設定グラデーション_166714" data-name="名称未設定グラデーション 1667" cx="221.6" cy="294.4" fx="221.6" fy="294.4" xlink:href="#_名称未設定グラデーション_1667"/>
    <radialGradient id="_名称未設定グラデーション_166715" data-name="名称未設定グラデーション 1667" cx="209.8" cy="293.4" fx="209.8" fy="293.4" xlink:href="#_名称未設定グラデーション_1667"/>
    <radialGradient id="_名称未設定グラデーション_166716" data-name="名称未設定グラデーション 1667" cx="214.7" cy="289.3" fx="214.7" fy="289.3" xlink:href="#_名称未設定グラデーション_1667"/>
    <radialGradient id="_名称未設定グラデーション_166717" data-name="名称未設定グラデーション 1667" cx="199.5" cy="291.1" fx="199.5" fy="291.1" xlink:href="#_名称未設定グラデーション_1667"/>
    <radialGradient id="_名称未設定グラデーション_166718" data-name="名称未設定グラデーション 1667" cx="206.7" cy="271.8" fx="206.7" fy="271.8" r="1.9" xlink:href="#_名称未設定グラデーション_1667"/>
    <radialGradient id="_名称未設定グラデーション_166719" data-name="名称未設定グラデーション 1667" cx="214.2" cy="264.5" fx="214.2" fy="264.5" r="1.9" xlink:href="#_名称未設定グラデーション_1667"/>
    <radialGradient id="_名称未設定グラデーション_166720" data-name="名称未設定グラデーション 1667" cx="206.7" cy="281.6" fx="206.7" fy="281.6" xlink:href="#_名称未設定グラデーション_1667"/>
    <radialGradient id="_名称未設定グラデーション_1574" data-name="名称未設定グラデーション 1574" cx="217.3" cy="245.9" fx="217.3" fy="245.9" r="5.3" gradientUnits="userSpaceOnUse">
      <stop offset="0" stop-color="#fffddf"/>
      <stop offset="1" stop-color="#faf388"/>
    </radialGradient>
  </defs>
  <g id="mountain01">
    <path class="st65" d="M75.8,282.6s28.8-67.4,40.4-82.7c11.7-15.3,34.6-47.7,44.8-58.6,10.2-10.9,17.1-28,25.5-40.6,8.4-12.6,25.6-31.5,25.6-31.5l1-13.1s-2.2-28.8,0-41.5c.9-5.5,1.6-10.5,2.1-14.5-1,1.2-21.4,26.2-33.7,44-12.6,18.3-27.4,31.4-31.5,34.3-4,2.9-10.3,11.4-19.4,28.8-9.1,17.4-21.7,35.8-28.6,44.9-6.9,9.1-13.1,11.4-25.7,16-12.6,4.6-10.9,5.1-17.1,13.7-6.3,8.6-19.4,18.3-45.7,44-5.8,5.6-10.1,9.7-13.4,12.6v198h33l42.7-153.9Z"/>
    <path class="st66" d="M213.1,56.1l-1,13.1s-17.2,18.9-25.6,31.5c-8.4,12.6-15.3,29.7-25.5,40.6-10.2,10.9-33.1,43.3-44.8,58.6-11.7,15.3-40.4,82.7-40.4,82.7l-42.7,153.9h267V87.5c-4.9-2.3-24.8-18.1-24.8-18.1,0,0-17.1-21.9-34.9-41.3S215.2,0,215.2,0c0,0,0,0,0,0-.5,4-1.1,8.9-2.1,14.5-2.2,12.7,0,41.5,0,41.5Z"/>
  </g>
  <g id="mountain02">
    <g>
      <path class="st64" d="M61.7,427.1l22.6-48.3,51.1-92.2s22.3-28.7,23.2-34.3c.9-5.6,13-17.3,10.8-23.4-2.2-6,.9-9.7.1-19.8-.8-10,2.6-9.2,4.1-22.7.3-2.5.7-4.9,1.2-7.1-.3-.2-.5-.3-.5-.3,0,0-32.2,22.1-45.3,34.1s-18.7,20.2-52.1,41.5c-24.2,15.4-59.3,44.5-76.9,59.3v145.6l67.2-19.8-5.5-12.8Z"/>
      <path class="st67" d="M250,218.4c-26-14.6-70-36.5-75.3-39.1-.5,2.2-.9,4.6-1.2,7.1-1.4,13.5-4.9,12.6-4.1,22.7.8,10-2.3,13.7-.1,19.8,2.2,6-9.9,17.7-10.8,23.4-.9,5.6-23.2,34.3-23.2,34.3l-51.1,92.2-22.6,48.3,5.5,12.8,232.8-68.5v-124.6c-18.2-9.4-36.2-20.7-50-28.4Z"/>
    </g>
  </g>
  <g id="mountain03">
    <g>
      <path class="st69" d="M230.5,351c-70.7-13.3-156.2-59.5-156.2-59.5,0,0-6.5,10.6-10.2,16-3.8,5.4-9.3,16.4-9.3,16.4,0,0-7.2,4.9-13.3,10-6.1,5.1-16.1,14.5-16.1,14.5,0,0-7.4,7-13.8,11.9-2.9,2.2-7.4,5.5-11.6,8.5v57.2l230.5-74.9Z"/>
      <path class="st68" d="M25.4,348.3s10-9.3,16.1-14.5c6.1-5.1,13.3-10,13.3-10,0,0,5.5-11,9.3-16.4,3.8-5.4,10.2-16,10.2-16-15.1,9.7-55.8,27-74.3,34.7v42.5c4.1-3,8.7-6.3,11.6-8.5,6.4-4.9,13.8-11.9,13.8-11.9Z"/>
    </g>
  </g>
  <g id="mountainsnow">
    <g>
      <path class="st7" d="M64.4,179c1.1-.9,35.1-16.6,35.1-16.6l-15.5,46.2,43.8-36.4-20.2,36.4,5.5-4.1c1.1-1.8,2.2-3.4,3.1-4.6,11.7-15.3,34.6-47.7,44.8-58.6,10.2-10.9,17.1-28,25.5-40.6,8.4-12.6,25.6-31.5,25.6-31.5l1-13.1s-2.2-28.8,0-41.5c.9-5.5,1.6-10.5,2.1-14.5-1,1.2-21.4,26.2-33.7,44-12.6,18.3-27.4,31.4-31.5,34.3-4,2.9-10.3,11.4-19.4,28.8-9.1,17.4-21.7,35.8-28.6,44.9-6.9,9.1-13.1,11.4-25.7,16-1,.4-1.9.7-2.7,1-5.2,5.6-9.6,10.3-9.2,9.9Z"/>
      <path class="st6" d="M282.5,95.5l17.6,2.2v-10.2c-4.9-2.3-24.8-18.1-24.8-18.1,0,0-17.1-21.9-34.9-41.3S215.2,0,215.2,0c0,0,0,0,0,0-.5,4-1.1,8.9-2.1,14.5-2.2,12.7,0,41.5,0,41.5l-1,13.1s-17.2,18.9-25.6,31.5c-8.4,12.6-15.3,29.7-25.5,40.6-10.2,10.9-33.1,43.3-44.8,58.6-.9,1.2-2,2.8-3.1,4.6l57.3-42.3,17.7-29.8,22.2,30.2-3.6-28.9,52.6,33.4-33.1-57,11.7,2.7,4.2-29.4,57.8,37.4v-4.1l-17.6-21.3Z"/>
    </g>
    <g>
      <path class="st0" d="M155.8,208.7l10.1-6.4,2.8,23.3c-.4-4.4,1.5-8.4.8-16.6-.8-10,2.6-9.2,4.1-22.7.3-2.5.7-4.9,1.2-7.1-.3-.2-.5-.3-.5-.3,0,0-32.2,22.1-45.3,34.1l28.5-16.3-1.7,11.8Z"/>
      <path class="st70" d="M173.6,186.4c-1.4,13.5-4.9,12.6-4.1,22.7.6,8.1-1.3,12.1-.8,16.6h0s6.1-9.4,6.1-9.4v-14.9l11.7,32.7-2.2-33.5,24.6,19.3-11.9-22,36.5,11.6c-24.9-13.3-54.4-27.9-58.7-30-.5,2.2-.9,4.6-1.2,7.1Z"/>
    </g>
    <g>
      <path class="st37" d="M187.9,48.2l-13,40.2,33.4-34.8,3.9,15.4,1-12.9s-2.2-28.8,0-41.5c.9-5.5,1.6-10.5,2.1-14.5-1,1.2-21.4,26.2-33.7,44-5.3,7.6-10.9,14.4-16,19.8l-2,9.8,24.3-25.5Z"/>
      <path class="st61" d="M215.3,0s0,0,0,0c-.5,4-1.1,8.9-2.1,14.5-2.2,12.7,0,41.5,0,41.5l-1,12.9h0c0,.1,4.5-25.8,4.5-25.8l7.4,34.2,9.5-16.7,21.6,16.1-14.7-35.1,21.4,11.2c-6.1-7.4-13.8-16.4-21.5-24.9C222.7,8.6,215.3,0,215.3,0Z"/>
    </g>
  </g>
  <g id="Hill1">
    <path class="st63" d="M0,398.1v65h300v-142.8C186.8,332.3,84,359.7,0,398.1Z"/>
    <path class="st62" d="M0,461c128.8-51.7,241.5-83.6,300-88.5v-3.9C179.7,378.5,40.4,436.2,0,450.6v10.4Z"/>
  </g>
  <g id="Hill2">
    <path class="st8" d="M216.6,463.2s0,0,0,0h1.8s81.6,0,81.6,0v-11.7s-3.9-.7-3.9-.7c-28.8-6.9-57.4-12.7-86.1-17.5-26.5-4.4-53.2-8.7-80-10.3l-24.6-1.4-37.9-1c-7.8,0-12.7,0-12.7,0h-20.1S0,421.8,0,421.8v4s0,37.4,0,37.4h216.6Z"/>
  </g>
  <g id="hill3">
    <polygon class="st9" points="57 439.5 116.2 451.7 123 453.7 127.1 454.5 161 463.2 0 463.2 0 428.8 57 439.5"/>
  </g>
  <g id="wood1">
    <rect class="st71" x="262.6" y="310.7" width="5.6" height="17.3"/>
    <g>
      <path class="st3" d="M279,319.8c2,0,3.2-2.1,2.2-3.8l-13.9-24.1c-1-1.7-3.4-1.7-4.4,0l-13.9,24.1c-1,1.7.3,3.5,2.2,3.8s3.7-.4,4.8-.7,2.6,1.4,3.4,1.5,4.1-1.3,5-1.4,1.9,1.5,2.2,1.4,2.6-1.7,3.5-1.8,2.2,1,3.2,1,1.8,1,2.8.8,3.1-.8,3.1-.8Z"/>
      <path class="st5" d="M256.6,305.3s1.2-.2,0,.2l.8,1.6,3.5-2.1,2.3,1.6,2.9-2,2.1,1.7.7-2,4.6,3.4.3-4.3h0s-6.6-11.5-6.6-11.5c-1-1.7-3.4-1.7-4.4,0l-8.1,14.1c1-.2,1.6-.4,2-.5v-.2Z"/>
      <path class="st50" d="M279.9,299.6l-12.8-22.1c-.9-1.6-3.2-1.6-4.1,0l-12.8,22.1s-1.1,2.8,3.8,1.6c4.9-1.1,2.6-.8,2.6-.8l.9,1.8,3.5-2.1,2.3,1.6,2.9-2,2.1,1.7.7-2,4.6,3.4.3-4.3,3.3,3.5s4-.1,2.7-2.4Z"/>
      <path class="st36" d="M257.5,290.6l1.7-3.4.8,2.1s1.2-1.3,1.7-1.3,3.5,1.3,3.5,1.3l3-1.9,2.9,2.1.3-2.7,2,1.3-6.1-10.6c-.9-1.6-3.2-1.6-4.1,0l-5.8,10.1c.1-.2.2-.3.2-.3v3.3Z"/>
      <path class="st51" d="M276.5,284.4l-9.7-16.8c-.7-1.2-2.4-1.2-3.1,0l-9.7,16.8s-1,4.4.3,3.2,3.1-3.9,3.1-3.9v3.3l1.7-3.4.8,2.1s1.2-1.3,1.7-1.3,3.5,1.3,3.5,1.3l3-1.9,2.9,2.1.3-2.7,3.3,2.1s2.3.6,2-1Z"/>
    </g>
    <rect class="st71" x="214.3" y="319.4" width="5.6" height="17.3"/>
    <g>
      <path class="st47" d="M236.9,324.7c2.8,0,4.5-3,3.1-5.4l-19.8-34.3c-1.4-2.4-4.9-2.4-6.3,0l-19.8,34.3c-1.4,2.4.4,5,3.1,5.4s5.3-.6,6.9-1,3.7,2,4.8,2.1,5.8-1.8,7.1-2,2.7,2.1,3.1,2,3.6-2.5,4.9-2.6,3.1,1.5,4.5,1.4,2.6,1.4,4,1.2,4.4-1.2,4.4-1.2Z"/>
      <path class="st35" d="M205,304.1s1.7-.2.1.2l1.2,2.3,5-3,3.3,2.2,4.1-2.9,3,2.5,1-2.9,6.5,4.8.4-6.1h0c0,0-9.5-16.3-9.5-16.3-1.4-2.4-4.9-2.4-6.3,0l-11.6,20c1.4-.3,2.3-.6,2.8-.7v-.2Z"/>
      <path class="st48" d="M238.1,296l-18.2-31.5c-1.3-2.2-4.5-2.2-5.8,0l-18.2,31.5s-1.6,3.9,5.4,2.3c7-1.6,3.6-1.2,3.6-1.2l1.3,2.6,5-3,3.3,2.2,4.1-2.9,3,2.5,1-2.9,6.5,4.8.4-6.1,4.7,5s5.7-.2,3.8-3.4Z"/>
      <path class="st34" d="M206.2,283.1l2.5-4.8,1.1,3s1.7-1.8,2.4-1.8,5,1.8,5,1.8l4.2-2.7,4.1,3,.4-3.9,2.9,1.9-8.7-15.1c-1.3-2.2-4.5-2.2-5.8,0l-8.3,14.3c.2-.3.3-.4.3-.4v4.7Z"/>
      <path class="st49" d="M233.3,274.3l-13.8-23.9c-1-1.7-3.4-1.7-4.4,0l-13.8,23.9s-1.5,6.2.5,4.6,4.4-5.6,4.4-5.6v4.7l2.5-4.8,1.1,3s1.7-1.8,2.4-1.8,5,1.8,5,1.8l4.2-2.7,4.1,3,.4-3.9,4.7,3s3.3.9,2.8-1.4Z"/>
    </g>
  </g>
  <g id="wood3">
    <path class="st72" d="M57,439.5l59.1,12.2,2.1.6c-.6-6.4-5.9-11.4-12.5-11.4s-2.2.2-3.3.5c-.3-7.9-6.8-14.3-14.8-14.3s-11,3.4-13.4,8.4c-2.1-1.5-4.6-2.4-7.4-2.4-4.6,0-8.7,2.5-10.8,6.2l.9.2Z"/>
    <path class="st72" d="M207.8,460c-2.3,0-4.5.3-6.6.9-2.3-11.2-12.1-19.6-24-19.6s-15.5,4.1-19.9,10.3c-3.3-3.6-8.1-5.8-13.3-5.8s-12.6,3.6-15.7,9l32.8,8.4h58.8c-3.5-2-7.6-3.1-12-3.1Z"/>
    <path class="st72" d="M193.6,336.7c-1.6-1-3.4-1.6-5.4-1.6s-3.1.4-4.4,1c-1.8-1.7-4.3-2.8-7-2.8s-6.2,1.6-8.1,4c-2.1-1.4-4.7-2.2-7.4-2.2-4.2,0-7.9,1.9-10.5,4.8-.9-.2-1.8-.4-2.7-.4-5.6,0-10.1,4.4-10.2,10,18.1-4.8,36.7-9.1,55.7-12.9Z"/>
  </g>
  <g id="wood2">
    <rect class="st71" x="175.4" y="332.1" width="5.6" height="9.8"/>
    <circle class="st10" cx="178.2" cy="320.6" r="16.1"/>
    <path class="st11" d="M163.4,314.4c2.9,2.2,8.4,3.6,14.6,3.6s12-1.6,14.9-3.9c-2.5-5.7-8.1-9.6-14.7-9.6s-12.4,4.1-14.8,9.8Z"/>
  </g>
  <g id="Xmas">
    <g>
      <g>
        <circle class="st4" cx="217.9" cy="272.3" r="1.9"/>
        <circle class="st41" cx="227.6" cy="268.2" r="1.9"/>
        <circle class="st40" cx="219" cy="261.7" r="1.9"/>
        <circle class="st38" cx="216" cy="255.3" r="1.9"/>
        <circle class="st39" cx="213.8" cy="282.9" r="1.9"/>
        <circle class="st42" cx="230" cy="274.8" r="1.9"/>
        <circle class="st46" cx="227" cy="286.2" r="1.9"/>
        <circle class="st43" cx="228.7" cy="298.1" r="1.9"/>
        <circle class="st44" cx="235.9" cy="291.9" r="1.9"/>
        <circle class="st45" cx="225.1" cy="307.4" r="1.9"/>
        <circle class="st24" cx="230" cy="318.8" r="1.9"/>
        <circle class="st25" cx="219.2" cy="321.4" r="1.9"/>
        <circle class="st29" cx="206.7" cy="315.4" r="1.9"/>
        <circle class="st30" cx="196.9" cy="319.5" r="1.9"/>
        <circle class="st31" cx="217.3" cy="307" r="1.9"/>
        <circle class="st32" cx="215.4" cy="295.3" r="1.9"/>
        <circle class="st33" cx="207.8" cy="305.1" r="1.9"/>
        <circle class="st26" cx="202.4" cy="293.7" r="1.9"/>
        <circle class="st27" cx="205.5" cy="289.3" r="1.9"/>
        <circle class="st28" cx="211.6" cy="269.9" r="1.9"/>
        <circle class="st23" cx="207.9" cy="264.2" r="1.9"/>
      </g>
      <g>
        <circle class="st1" cx="224.4" cy="273" r="1.9"/>
        <circle class="st58" cx="221.8" cy="265.4" r="1.9"/>
        <circle class="st59" cx="231.5" cy="288.5" r="1.9"/>
        <circle class="st60" cx="237.1" cy="297.7" r="1.9"/>
        <circle class="st56" cx="231.8" cy="310.2" r="1.9"/>
        <circle class="st54" cx="201.4" cy="307.4" r="1.9"/>
        <circle class="st57" cx="221.4" cy="305.7" r="1.9"/>
        <circle class="st55" cx="225.2" cy="318" r="1.9"/>
        <circle class="st53" cx="213.5" cy="317.9" r="1.9"/>
        <circle class="st52" cx="219.6" cy="314.1" r="1.9"/>
        <circle class="st20" cx="201.8" cy="315.9" r="1.9"/>
        <circle class="st21" cx="235.4" cy="319.3" r="1.9"/>
        <circle class="st22" cx="212.3" cy="307.4" r="1.9"/>
        <circle class="st14" cx="222.5" cy="284.8" r="1.9"/>
        <circle class="st12" cx="221.6" cy="294.4" r="1.9"/>
        <circle class="st15" cx="209.8" cy="293.4" r="1.9"/>
        <circle class="st13" cx="214.7" cy="289.3" r="1.9"/>
        <circle class="st19" cx="199.5" cy="291.1" r="1.9"/>
        <circle class="st18" cx="206.7" cy="271.8" r="1.9"/>
        <circle class="st17" cx="214.2" cy="264.5" r="1.9"/>
        <circle class="st16" cx="206.7" cy="281.6" r="1.9"/>
      </g>
      <polygon class="st2" points="217.3 240.7 218.6 244.7 222.7 244.7 219.4 247.1 220.7 251 217.3 248.6 213.9 251 215.2 247.1 211.9 244.7 216 244.7 217.3 240.7"/>
    </g>
  </g>
</svg>